<?xml version="1.0"?>
<svg xmlns="http://www.w3.org/2000/svg" id="Layer_1" data-name="Layer 1" viewBox="0 0 512 512" width="512" height="512"><title>Database Upload</title><path d="M346,285.47a100,100,0,1,1-64.63,151.29,100.127,100.127,0,0,1-2.14-103.05h.01a100.146,100.146,0,0,1,66.58-48.21Z" style="fill:#6fe3ff"/><path d="M346,185.68v99.79l-.18.03a100.146,100.146,0,0,0-66.58,48.21h-.01c-23.82,5.76-52.43,9.11-83.23,9.11-82.86,0-150-24.28-150-54.28V185.68c0,30,67.14,54.28,150,54.28S346,215.68,346,185.68Zm-51.05,92.1a11.92,11.92,0,1,0-11.92,11.93A11.924,11.924,0,0,0,294.95,277.78Z" style="fill:#f8ec7d"/><path d="M346,82.82V185.68c0,30-67.14,54.28-150,54.28S46,215.68,46,185.68V82.82c0,29.98,67.16,54.29,150,54.29S346,112.8,346,82.82Zm-51.05,93.63a11.92,11.92,0,1,0-11.92,11.92A11.918,11.918,0,0,0,294.95,176.45Z" style="fill:#e48e66"/><path d="M196,28.54c82.84,0,150,24.3,150,54.28s-67.16,54.29-150,54.29S46,112.8,46,82.82,113.16,28.54,196,28.54Z" style="fill:#f8ec7d"/><circle cx="283.03" cy="176.45" r="11.92" style="fill:#f8ec7d"/><path d="M283.03,265.86a11.925,11.925,0,1,1-11.92,11.92A11.924,11.924,0,0,1,283.03,265.86Z" style="fill:#e48e66"/><path d="M281.37,436.76l-1.5.37c-23.94,5.85-52.8,9.26-83.87,9.26-82.86,0-150-24.28-150-54.28V288.54c0,30,67.14,54.28,150,54.28,30.8,0,59.41-3.35,83.23-9.11a100.127,100.127,0,0,0,2.14,103.05Z" style="fill:#e48e66"/><path d="M142.165,190.824A398.1,398.1,0,0,0,196,194.37a408.7,408.7,0,0,0,43.054-2.234,6,6,0,1,0-1.268-11.932A397.054,397.054,0,0,1,196,182.37a386.262,386.262,0,0,1-52.205-3.434,6,6,0,1,0-1.63,11.888Z" style="fill:#63316d"/><path d="M283.03,194.37a17.92,17.92,0,1,0-17.92-17.92A17.94,17.94,0,0,0,283.03,194.37Zm0-23.84a5.92,5.92,0,1,1-5.92,5.92A5.927,5.927,0,0,1,283.03,170.53Z" style="fill:#63316d"/><path d="M237.781,281.534A394.143,394.143,0,0,1,196,283.71a387.8,387.8,0,0,1-52.209-3.435,6,6,0,0,0-1.622,11.89A399.841,399.841,0,0,0,196,295.71a406.268,406.268,0,0,0,43.059-2.244,6,6,0,0,0-1.278-11.932Z" style="fill:#63316d"/><path d="M300.95,277.78a17.92,17.92,0,1,0-17.92,17.93A17.94,17.94,0,0,0,300.95,277.78Zm-17.92,5.93a5.925,5.925,0,1,1,5.92-5.93A5.932,5.932,0,0,1,283.03,283.71Z" style="fill:#63316d"/><path d="M237.786,382.874A397.054,397.054,0,0,1,196,385.04a386.1,386.1,0,0,1-52.205-3.435,6,6,0,0,0-1.63,11.889A398.1,398.1,0,0,0,196,397.04a408.7,408.7,0,0,0,43.054-2.234,6,6,0,1,0-1.268-11.932Z" style="fill:#63316d"/><path d="M366,277.46a106.607,106.607,0,0,0-14,.933V82.82c0-17.214-17.009-32.849-47.894-44.025C275.138,28.313,236.745,22.54,196,22.54S116.862,28.313,87.894,38.8C57.009,49.971,40,65.606,40,82.82V392.11c0,17.222,17.006,32.86,47.886,44.032C116.847,446.62,155.242,452.39,196,452.39c29.509,0,58.021-3.051,82.688-8.82A106,106,0,1,0,366,277.46Zm-19.287,12.4-.192-.938-.359-2.381h.012Zm-71.321,38.583c-23.649,5.479-51.027,8.378-79.392,8.378-39.4,0-76.347-5.516-104.031-15.532C66.568,312.1,52,300.162,52,288.54V209.619c8.116,7.6,20.209,14.421,35.886,20.093C116.846,240.19,155.242,245.96,196,245.96s79.154-5.77,108.114-16.248c15.677-5.672,27.77-12.5,35.886-20.093v71.066A106.08,106.08,0,0,0,275.392,328.442ZM52,106.75c8.117,7.6,20.212,14.424,35.893,20.1C116.864,137.335,155.257,143.11,196,143.11s79.136-5.775,108.107-16.261c15.681-5.675,27.776-12.5,35.893-20.1v78.93c0,11.622-14.568,23.558-39.969,32.748C272.347,228.444,235.4,233.96,196,233.96s-76.347-5.516-104.031-15.532C66.568,209.238,52,197.3,52,185.68ZM91.977,50.08C119.669,40.059,156.612,34.54,196,34.54s76.331,5.519,104.023,15.54C325.429,59.272,340,71.206,340,82.82s-14.571,23.55-39.977,32.745C272.328,125.589,235.386,131.11,196,131.11s-76.328-5.521-104.023-15.545C66.571,106.37,52,94.435,52,82.82S66.571,59.272,91.977,50.08Zm-.008,374.778C66.568,415.668,52,403.732,52,392.11V312.478c8.116,7.6,20.209,14.422,35.886,20.094C116.846,343.05,155.242,348.82,196,348.82a381.808,381.808,0,0,0,72.342-6.608,106.114,106.114,0,0,0,3.8,90.536c-22.895,5-49.056,7.642-76.145,7.642C156.6,440.39,119.653,434.874,91.969,424.858ZM366,477.46a94.034,94.034,0,0,1-81.723-140.49c.057-.088.113-.178.165-.27a94.06,94.06,0,0,1,62.521-45.309v0c.077-.013.153-.027.229-.042A94,94,0,1,1,366,477.46Z" style="fill:#63316d"/><path d="M370.088,341.018a6,6,0,0,0-8.176,0l-31.47,29.29a6,6,0,1,0,8.176,8.784L360,359.191V421.52a6,6,0,0,0,12,0V359.191l21.382,19.9a6,6,0,0,0,8.176-8.784Z" style="fill:#63316d"/></svg>
