<?xml version="1.0" encoding="UTF-8" standalone="no"?>
<!DOCTYPE svg PUBLIC "-//W3C//DTD SVG 1.1//EN" "http://www.w3.org/Graphics/SVG/1.1/DTD/svg11.dtd">
<svg width="100%" height="100%" viewBox="0 0 58 58" version="1.1" xmlns="http://www.w3.org/2000/svg" xmlns:xlink="http://www.w3.org/1999/xlink" xml:space="preserve" xmlns:serif="http://www.serif.com/" style="fill-rule:evenodd;clip-rule:evenodd;stroke-linejoin:round;stroke-miterlimit:1.41421;">
    <g>
        <g>
            <path d="M46.5,14L32.5,0L1.5,0L1.5,58L46.5,58L46.5,14Z" style="fill:rgb(242,136,92);fill-rule:nonzero;"/>
            <g>
                <path d="M11.5,23L36.5,23C37.052,23 37.5,22.553 37.5,22C37.5,21.447 37.052,21 36.5,21L11.5,21C10.948,21 10.5,21.447 10.5,22C10.5,22.553 10.948,23 11.5,23Z" style="fill:white;fill-rule:nonzero;"/>
                <path d="M11.5,15L21.5,15C22.052,15 22.5,14.553 22.5,14C22.5,13.447 22.052,13 21.5,13L11.5,13C10.948,13 10.5,13.447 10.5,14C10.5,14.553 10.948,15 11.5,15Z" style="fill:white;fill-rule:nonzero;"/>
                <path d="M36.5,29L11.5,29C10.948,29 10.5,29.447 10.5,30C10.5,30.553 10.948,31 11.5,31L36.5,31C37.052,31 37.5,30.553 37.5,30C37.5,29.447 37.052,29 36.5,29Z" style="fill:white;fill-rule:nonzero;"/>
                <path d="M36.5,37L11.5,37C10.948,37 10.5,37.447 10.5,38C10.5,38.553 10.948,39 11.5,39L36.5,39C37.052,39 37.5,38.553 37.5,38C37.5,37.447 37.052,37 36.5,37Z" style="fill:white;fill-rule:nonzero;"/>
                <path d="M36.5,45L11.5,45C10.948,45 10.5,45.447 10.5,46C10.5,46.553 10.948,47 11.5,47L36.5,47C37.052,47 37.5,46.553 37.5,46C37.5,45.447 37.052,45 36.5,45Z" style="fill:white;fill-rule:nonzero;"/>
            </g>
            <path d="M32.5,0L32.5,14L46.5,14L32.5,0Z" style="fill:rgb(213,208,187);fill-rule:nonzero;"/>
        </g>
        <g>
            <rect x="34.5" y="36" width="22" height="22" style="fill:rgb(33,174,94);"/>
            <rect x="44.5" y="37.586" width="2" height="16" style="fill:white;"/>
            <path d="M45.5,55L38.5,48.293L39.976,46.879L45.5,52.172L51.024,46.879L52.5,48.293L45.5,55Z" style="fill:white;fill-rule:nonzero;"/>
        </g>
    </g>
</svg>
