<?xml version="1.0"?>
<svg xmlns="http://www.w3.org/2000/svg" viewBox="0 0 64 64" width="512" height="512"><g id="Bus_Stop" data-name="Bus Stop"><polygon points="61 21 61 25 58 25 6 25 3 25 3 21 22 21 42 21 61 21" style="fill:#787680"/><rect x="6" y="29" width="52" height="16" style="fill:#00ccb3"/><polygon points="54 53 54 57 52 57 44 57 42 57 42 53 54 53" style="fill:#898890"/><polygon points="38 53 38 57 36 57 28 57 26 57 26 53 38 53" style="fill:#898890"/><path d="M44,3H20a1,1,0,0,0-1,1V16a1,1,0,0,0,1,1H44a1,1,0,0,0,1-1V4A1,1,0,0,0,44,3Z" style="fill:#5aaae7"/><polygon points="22 53 22 57 20 57 12 57 10 57 10 53 22 53" style="fill:#898890"/><path d="M34,5H28a1,1,0,0,0-1,1v8a1,1,0,0,0,1,1h6a2.987,2.987,0,0,0,2.22-5A2.987,2.987,0,0,0,34,5ZM29,7h5a1,1,0,0,1,0,2H29Zm5,6H29V11h5a1,1,0,0,1,0,2Z"/><path d="M59,26h2a1,1,0,0,0,1-1V21a1,1,0,0,0-1-1H43V18h1a2,2,0,0,0,2-2V4a2,2,0,0,0-2-2H20a2,2,0,0,0-2,2V16a2,2,0,0,0,2,2h1v2H3a1,1,0,0,0-1,1v4a1,1,0,0,0,1,1H5V60H2v2H62V60H59ZM7,30H57V44H7ZM20,4H44V16H20Zm3,14H41v2H23ZM4,22H60v2H4Zm53,4v2H7V26ZM11,56V54H21v2Zm8,2v2H13V58Zm8-2V54H37v2Zm8,2v2H29V58Zm8-2V54H53v2Zm8,2v2H45V58Zm2,2V58h1a1,1,0,0,0,1-1V53a1,1,0,0,0-1-1H42a1,1,0,0,0-1,1v4a1,1,0,0,0,1,1h1v2H37V58h1a1,1,0,0,0,1-1V53a1,1,0,0,0-1-1H26a1,1,0,0,0-1,1v4a1,1,0,0,0,1,1h1v2H21V58h1a1,1,0,0,0,1-1V53a1,1,0,0,0-1-1H10a1,1,0,0,0-1,1v4a1,1,0,0,0,1,1h1v2H7V46H57V60Z"/></g></svg>
